# Blender 3.6.1
# www.blender.org
o Cube
v -0.418580 0.755179 0.064179
v 0.000000 7.093509 0.000000
v -0.418580 0.755179 -0.064179
v 0.418580 0.634058 -0.064179
v 0.418580 0.755179 0.064179
v -0.418580 0.634058 0.064179
v 0.418580 0.755179 -0.064179
v -0.418580 0.634058 -0.064179
v -0.320894 3.924344 0.000000
v -0.320894 3.924344 0.000000
v 0.320894 3.924344 0.000000
v 0.320894 3.924344 0.000000
v 0.418580 0.634058 0.064179
v -0.655206 0.804163 -0.064179
v -0.655206 0.804163 0.064179
v -0.696631 0.690346 -0.064179
v 0.655206 0.804163 -0.064179
v 0.696631 0.690346 -0.064179
v 0.655206 0.804163 0.064179
v 0.696631 0.690346 0.064179
v -0.696631 0.690346 0.064179
v 0.139527 0.755179 -0.064179
v -0.139527 0.755179 -0.064179
v -0.139527 0.755179 0.064179
v 0.139527 0.755179 0.064179
v -0.139527 0.634058 0.064179
v 0.139527 0.634058 0.064179
v 0.139527 0.634058 -0.064179
v -0.139527 0.634058 -0.064179
v 0.106965 3.924344 0.064179
v -0.106965 3.924344 0.064179
v -0.106965 3.924344 -0.064179
v 0.106965 3.924344 -0.064179
v -0.177250 -0.528589 0.093753
v 0.177250 -0.528589 0.093753
v 0.177250 -0.528589 -0.093753
v -0.177250 -0.528589 -0.093753
v -0.418580 0.755179 0.000000
v 0.418580 0.755179 0.000000
v 0.418580 0.755179 0.000000
v -0.418580 0.755179 0.000000
v -0.139527 0.755179 -0.064179
v 0.139527 0.755179 -0.064179
v 0.139527 0.755179 0.064179
v -0.139527 0.755179 0.064179
v -0.177250 -0.852961 0.093753
v 0.177250 -0.852961 0.093753
v 0.177250 -0.852961 -0.093753
v -0.177250 -0.852961 -0.093753
v 0.139527 -0.470459 0.064179
v 0.139527 -0.470459 -0.064179
v -0.139527 -0.470459 -0.064179
v -0.139527 -0.470459 0.064179
vn -0.0000 1.0000 -0.0000
vn -0.0000 0.0270 -0.9996
vn -0.0000 0.0270 0.9996
vn -0.0000 -0.0000 1.0000
vn -0.0000 -0.0000 -1.0000
vn -0.2520 0.0052 0.9677
vn 0.2520 0.0052 -0.9677
vn -0.0000 -1.0000 -0.0000
vn -0.9397 0.3420 -0.0000
vn 0.9397 0.3420 -0.0000
vn 0.2027 0.9792 -0.0000
vn -0.1984 -0.9801 -0.0000
vn -0.2027 0.9792 -0.0000
vn 0.1984 -0.9801 -0.0000
vn 0.8388 0.5444 -0.0000
vn -0.2520 0.0052 -0.9677
vn 0.2520 0.0052 0.9677
vn 1.0000 -0.0000 -0.0000
vn -0.0000 0.4534 -0.8913
vn -0.0000 0.4534 0.8913
vn -0.8388 0.5444 -0.0000
vn -1.0000 -0.0000 -0.0000
vt 0.605090 0.288191
vt 0.026523 0.499811
vt 0.076007 0.011459
vt 0.125491 0.499811
vt 0.092502 0.500189
vt 0.059512 0.500189
vt 0.605090 0.311109
vt 0.178537 0.499811
vt 0.228022 0.011459
vt 0.277506 0.499811
vt 0.244516 0.500189
vt 0.211527 0.500189
vt 0.444430 0.019007
vt 0.487462 0.019007
vt 0.487462 0.037671
vt 0.444430 0.037671
vt 0.444430 0.297454
vt 0.487462 0.297454
vt 0.487462 0.316118
vt 0.444430 0.316118
vt 0.249538 0.988541
vt 0.292570 0.988162
vt 0.097523 0.988541
vt 0.140555 0.988162
vt 0.615763 0.506451
vt 0.615763 0.549483
vt 0.595969 0.549483
vt 0.595969 0.506451
vt 0.358366 0.297454
vt 0.358366 0.316118
vt 0.315488 0.307444
vt 0.321876 0.289906
vt 0.358366 0.019007
vt 0.358366 0.037671
vt 0.315488 0.028998
vt 0.321876 0.011459
vt 0.623637 0.202767
vt 0.623637 0.222561
vt 0.605090 0.222561
vt 0.605090 0.202767
vt 0.623637 0.245479
vt 0.623637 0.265272
vt 0.605090 0.265272
vt 0.605090 0.245479
vt 0.523951 0.011459
vt 0.530340 0.028998
vt 0.498329 0.568352
vt 0.518122 0.568352
vt 0.518122 0.604842
vt 0.498329 0.604842
vt 0.573051 0.549328
vt 0.553258 0.549328
vt 0.553258 0.506451
vt 0.573051 0.506451
vt 0.624884 0.179849
vt 0.605091 0.179849
vt 0.605091 0.143359
vt 0.624884 0.143359
vt 0.523951 0.289906
vt 0.530340 0.307444
vt 0.615763 0.592360
vt 0.595969 0.592360
vt 0.573051 0.592360
vt 0.553258 0.592360
vt 0.557818 0.177282
vt 0.577612 0.177282
vt 0.582172 0.187338
vt 0.553258 0.187338
vt 0.011459 0.988162
vt 0.054491 0.988541
vt 0.163474 0.988162
vt 0.206506 0.988541
vt 0.401398 0.297454
vt 0.401398 0.316118
vt 0.401398 0.019007
vt 0.401398 0.037671
vt 0.582172 0.236037
vt 0.553258 0.236037
vt 0.401398 0.486318
vt 0.444430 0.486318
vt 0.450247 0.495450
vt 0.395580 0.495450
vt 0.401398 0.207872
vt 0.444430 0.207872
vt 0.450247 0.217003
vt 0.395580 0.217003
vt 0.557818 0.424778
vt 0.577612 0.424778
vt 0.582172 0.434834
vt 0.553258 0.434834
vt 0.605090 0.011459
vt 0.605091 0.011459
vt 0.605091 0.054491
vt 0.605090 0.054491
vt 0.376966 0.610289
vt 0.367321 0.612508
vt 0.367321 0.568352
vt 0.605090 0.077409
vt 0.605091 0.077409
vt 0.605091 0.120441
vt 0.605090 0.120441
vt 0.475411 0.611384
vt 0.465514 0.611384
vt 0.475411 0.568352
vt 0.432699 0.568352
vt 0.442596 0.611384
vt 0.432699 0.611384
vt 0.399884 0.568352
vt 0.409781 0.611384
vt 0.399884 0.611384
vt 0.344403 0.568352
vt 0.344403 0.623019
vt 0.315488 0.623019
vt 0.315488 0.568352
vt 0.450247 0.545434
vt 0.395580 0.545434
vt 0.582172 0.483532
vt 0.553258 0.483532
vt 0.450247 0.266988
vt 0.395580 0.266988
vt 0.557818 0.258955
vt 0.577612 0.258955
vt 0.557818 0.011459
vt 0.577612 0.011459
s 0
f 9/1/1 2/1/1 10/1/1
f 10/2/2 2/3/2 11/4/2 33/5/2 32/6/2
f 11/7/1 2/7/1 12/7/1
f 12/8/3 2/9/3 9/10/3 31/11/3 30/12/3
f 24/13/4 1/14/4 6/15/4 26/16/4
f 22/17/5 7/18/5 4/19/5 28/20/5
f 45/21/6 31/11/6 9/10/6 41/22/6
f 39/7/1 11/7/1 12/7/1 40/7/1
f 43/23/7 33/5/7 11/4/7 39/24/7
f 41/1/1 9/1/1 10/1/1 38/1/1
f 28/25/8 4/26/8 13/27/8 27/28/8
f 3/29/5 8/30/5 16/31/5 14/32/5
f 5/33/4 13/34/4 20/35/4 19/36/4
f 15/37/9 14/38/9 16/39/9 21/40/9
f 17/41/10 19/42/10 20/43/10 18/44/10
f 6/15/4 1/14/4 15/45/4 21/46/4
f 1/47/11 3/48/11 14/49/11 15/50/11
f 8/51/12 6/52/12 21/53/12 16/54/12
f 7/55/13 5/56/13 19/57/13 17/58/13
f 4/19/5 7/18/5 17/59/5 18/60/5
f 13/27/14 4/26/14 18/61/14 20/62/14
f 8/51/8 29/63/8 26/64/8 6/52/8
f 51/65/15 50/66/15 35/67/15 36/68/15
f 38/69/16 10/2/16 32/6/16 42/70/16
f 42/70/5 32/6/5 33/5/5 43/23/5
f 40/71/17 12/8/17 30/12/17 44/72/17
f 44/72/4 30/12/4 31/11/4 45/21/4
f 3/29/5 23/73/5 29/74/5 8/30/5
f 23/73/5 22/17/5 28/20/5 29/74/5
f 5/33/4 25/75/4 27/76/4 13/34/4
f 25/75/4 24/13/4 26/16/4 27/76/4
f 36/68/18 35/67/18 47/77/18 48/78/18
f 52/79/19 51/80/19 36/81/19 37/82/19
f 50/83/20 53/84/20 34/85/20 35/86/20
f 53/87/21 52/88/21 37/89/21 34/90/21
f 25/91/5 44/92/5 45/93/5 24/94/5
f 5/95/1 40/96/1 44/97/1 25/97/1
f 23/98/4 42/99/4 43/100/4 22/101/4
f 3/102/1 38/103/1 42/104/1 23/104/1
f 1/1/1 41/1/1 38/1/1 3/1/1
f 22/105/1 43/105/1 39/106/1 7/107/1
f 7/7/1 39/7/1 40/7/1 5/7/1
f 24/108/1 45/108/1 41/109/1 1/110/1
f 49/111/8 48/112/8 47/113/8 46/114/8
f 37/82/5 36/81/5 48/115/5 49/116/5
f 34/90/22 37/89/22 49/117/22 46/118/22
f 35/86/4 34/85/4 46/119/4 47/120/4
f 26/121/22 29/122/22 52/88/22 53/87/22
f 27/76/4 26/16/4 53/84/4 50/83/4
f 29/74/5 28/20/5 51/80/5 52/79/5
f 28/123/18 27/124/18 50/66/18 51/65/18
