# Blender 3.6.1
# www.blender.org
o Cube
v -0.126620 -1.094291 0.198651
v -0.198651 0.844936 0.224369
v -0.126620 -1.094291 -0.198651
v -0.198651 0.844936 -0.224369
v 0.126620 -1.094291 0.198651
v 0.198651 0.844936 0.224369
v 0.126620 -1.094291 -0.198651
v 0.198651 0.844936 -0.224369
v -0.091157 1.206668 0.311348
v -0.091157 1.206668 -0.311348
v 0.091157 1.206668 -0.311348
v 0.091157 1.206668 0.311348
v 0.101815 0.844936 0.676155
v -0.101815 0.844936 0.676155
v 0.101815 1.206668 0.676155
v -0.101815 1.206668 0.676155
v -0.101815 0.844936 -0.676155
v 0.101815 0.844936 -0.676155
v -0.101815 1.206668 -0.676155
v 0.101815 1.206668 -0.676155
v -0.198651 1.206668 0.224369
v -0.198651 1.206668 -0.224369
v 0.198651 1.206668 -0.224369
v 0.198651 1.206668 0.224369
v -0.070638 3.069252 0.241263
v -0.070638 3.069252 -0.241263
v 0.070638 3.069252 -0.241263
v 0.070638 3.069252 0.241263
v 0.000000 3.625416 0.000000
v 0.126620 0.844936 -0.224369
v -0.126620 0.844936 -0.224369
v -0.126620 0.844936 0.224369
v 0.126620 0.844936 0.224369
vn -0.0000 -1.0000 -0.0000
vn -0.0000 1.0000 -0.0000
vn -1.0000 -0.0000 -0.0000
vn -0.0000 0.0376 0.9993
vn 1.0000 -0.0000 -0.0000
vn -0.0000 -0.0000 1.0000
vn 0.9778 -0.0000 0.2096
vn -0.9778 -0.0000 0.2096
vn -0.0000 -0.0000 -1.0000
vn 0.9778 -0.0000 -0.2096
vn -0.9778 -0.0000 -0.2096
vn 0.9920 0.1260 -0.0000
vn -0.0000 0.0376 -0.9993
vn 0.9999 0.0110 -0.0000
vn -0.9999 0.0110 -0.0000
vn -0.9920 0.1260 -0.0000
vn -0.0000 0.3980 0.9174
vn -0.0000 0.3980 -0.9174
vn -0.0000 -0.0133 0.9999
vn -0.0000 -0.0133 -0.9999
vt 0.279643 0.617381
vt 0.296252 0.617381
vt 0.296252 0.720848
vt 0.279643 0.720848
vt 0.335813 0.617763
vt 0.335813 0.617381
vt 0.335813 0.619490
vt 0.335813 0.619108
vt 0.296252 0.863878
vt 0.279643 0.863878
vt 0.279643 0.760410
vt 0.296252 0.760410
vt 0.335813 0.660779
vt 0.335813 0.661161
vt 0.335813 0.659052
vt 0.335813 0.659434
vt 0.078172 0.892128
vt 0.019781 0.892128
vt 0.019781 0.800520
vt 0.078172 0.800520
vt 0.633155 0.610531
vt 0.633155 0.713999
vt 0.549771 0.713999
vt 0.549771 0.610531
vt 0.428097 0.581965
vt 0.386060 0.581965
vt 0.390791 0.153243
vt 0.423366 0.153243
vt 0.240082 0.721551
vt 0.148474 0.721551
vt 0.170802 0.617381
vt 0.217754 0.617381
vt 0.386060 0.621526
vt 0.477668 0.621526
vt 0.455340 0.725697
vt 0.408388 0.725697
vt 0.756615 0.610531
vt 0.756615 0.713999
vt 0.673231 0.713999
vt 0.673231 0.610531
vt 0.715442 0.940656
vt 0.668490 0.940656
vt 0.668490 0.857731
vt 0.715442 0.857731
vt 0.240082 0.865283
vt 0.148474 0.865283
vt 0.170802 0.761112
vt 0.217754 0.761112
vt 0.672716 0.506360
vt 0.756100 0.506360
vt 0.632641 0.818169
vt 0.549257 0.818169
vt 0.980219 0.102706
vt 0.933267 0.102706
vt 0.933267 0.019781
vt 0.980219 0.019781
vt 0.756100 0.818169
vt 0.672716 0.818169
vt 0.549257 0.506360
vt 0.632641 0.506360
vt 0.386060 0.765258
vt 0.477668 0.765258
vt 0.455340 0.869429
vt 0.408388 0.869429
vt 0.044566 0.617381
vt 0.044566 0.760959
vt 0.019781 0.740904
vt 0.019781 0.637436
vt 0.569312 0.882516
vt 0.569312 0.924553
vt 0.549257 0.949338
vt 0.549257 0.857731
vt 0.084127 0.760959
vt 0.084127 0.617381
vt 0.108913 0.637436
vt 0.108913 0.740904
vt 0.608873 0.924553
vt 0.608873 0.882516
vt 0.628928 0.857731
vt 0.628928 0.949338
vt 0.147199 0.148359
vt 0.035941 0.148359
vt 0.091570 0.019781
vt 0.509695 0.581965
vt 0.467658 0.581965
vt 0.472389 0.153243
vt 0.504964 0.153243
vt 0.163359 0.577819
vt 0.019781 0.577819
vt 0.346498 0.577819
vt 0.202920 0.577819
vt 0.219080 0.148359
vt 0.330339 0.148359
vt 0.555187 0.466799
vt 0.549257 0.019781
vt 0.652724 0.019781
vt 0.646794 0.466799
vt 0.274709 0.019781
vt 0.407078 0.019781
vt 0.488677 0.019781
vt 0.835315 0.463705
vt 0.835315 0.019781
vt 0.893706 0.019781
vt 0.893706 0.463705
vt 0.835315 0.947191
vt 0.835315 0.503266
vt 0.893706 0.503266
vt 0.893706 0.947191
vt 0.698216 0.466799
vt 0.692286 0.019781
vt 0.795754 0.019781
vt 0.789824 0.466799
s 0
f 32/1/1 2/2/1 4/3/1 31/4/1
f 31/5/2 4/6/2 8/7/2 30/8/2
f 30/9/1 8/10/1 6/11/1 33/12/1
f 33/13/2 6/14/2 2/15/2 32/16/2
f 3/17/1 7/18/1 5/19/1 1/20/1
f 4/21/3 2/22/3 21/23/3 22/24/3
f 9/25/4 12/26/4 28/27/4 25/28/4
f 24/29/2 21/30/2 16/31/2 15/32/2
f 8/33/1 4/34/1 17/35/1 18/36/1
f 6/37/5 8/38/5 23/39/5 24/40/5
f 14/41/6 13/42/6 15/43/6 16/44/6
f 2/45/1 6/46/1 13/47/1 14/48/1
f 6/37/7 24/40/7 15/49/7 13/50/7
f 21/23/8 2/22/8 14/51/8 16/52/8
f 18/53/9 17/54/9 19/55/9 20/56/9
f 23/39/10 8/38/10 18/57/10 20/58/10
f 4/21/11 22/24/11 19/59/11 17/60/11
f 22/61/2 23/62/2 20/63/2 19/64/2
f 9/65/2 10/66/2 22/67/2 21/68/2
f 10/69/1 11/70/1 23/71/1 22/72/1
f 11/73/2 12/74/2 24/75/2 23/76/2
f 12/77/1 9/78/1 21/79/1 24/80/1
f 28/81/12 27/82/12 29/83/12
f 11/84/13 10/85/13 26/86/13 27/87/13
f 12/88/14 11/89/14 27/82/14 28/81/14
f 10/90/15 9/91/15 25/92/15 26/93/15
f 7/94/5 30/95/5 33/96/5 5/97/5
f 26/93/16 25/92/16 29/98/16
f 25/28/17 28/27/17 29/99/17
f 27/87/18 26/86/18 29/100/18
f 5/101/19 33/102/19 32/103/19 1/104/19
f 3/105/20 31/106/20 30/107/20 7/108/20
f 1/109/3 32/110/3 31/111/3 3/112/3
