# Blender 3.6.1
# www.blender.org
o Cube.002
v 0.486184 -1.368734 -0.270848
v 0.916241 0.472684 0.087820
v 0.330726 -1.261621 -0.519590
v 0.822473 0.462337 -0.269296
v 2.162970 -1.833948 -0.600227
v 2.508075 0.085951 -0.409713
v 2.034125 -1.675802 -0.922404
v 2.287323 0.125332 -0.657877
v 1.426881 2.404955 -0.141191
v 1.446457 2.047371 -0.414463
v 2.483355 1.801436 -0.672001
v 2.636877 1.842897 -0.521309
v 2.199124 2.748518 -0.627107
v -0.145076 -2.803954 -1.026031
v -0.037960 -3.009939 -0.899894
v 1.478062 -3.286217 -1.452716
v 1.515908 -3.402925 -1.222815
v -0.792414 -4.332040 -1.764441
v -1.113570 -4.722792 -1.595613
v 1.225495 -5.140363 -2.500995
v 1.240313 -5.263143 -2.149229
v 1.229487 -1.476526 -0.749997
v 1.625238 0.198465 -0.553782
v 1.291086 -1.582318 -0.429628
v 1.783696 0.258917 -0.173402
v 1.906322 1.557699 -0.571942
v 2.141693 1.895828 -0.284112
v 0.681833 -3.068164 -1.317854
v 0.755230 -3.180664 -1.032521
v 0.078338 -4.783588 -2.168300
v 0.188250 -4.684068 -1.778898
v -0.877679 -0.993922 0.109726
v -0.990439 1.044790 0.186232
v -1.000000 -0.966414 -0.197160
v -0.999342 0.954705 -0.194854
v 1.000000 -1.033586 0.197160
v 0.823251 1.035622 0.068929
v 0.909496 -0.957589 -0.190023
v 0.793428 0.973590 -0.205566
v -0.913671 3.126808 -0.341260
v -0.994295 2.981278 -0.662504
v 0.581851 2.950620 -0.630373
v 0.809462 3.120917 -0.376323
v 0.000000 5.108503 -1.428123
v -0.971624 -2.737218 -0.494770
v -0.843549 -2.896549 -0.302697
v 0.880037 -2.823722 -0.513973
v 0.891302 -2.897318 -0.247535
v -1.062697 -4.576618 -1.066352
v -1.328765 -5.039076 -0.877177
v 1.341092 -4.925591 -1.258574
v 1.301239 -4.994063 -0.870740
v 0.010932 -0.960704 -0.212419
v -0.014587 0.901584 -0.244097
v 0.021401 -1.003214 0.149031
v -0.003735 1.038188 0.133058
v -0.053247 2.476403 -0.542162
v -0.011718 2.838084 -0.249401
v -0.005659 -2.810932 -0.576953
v 0.026802 -2.861990 -0.247666
v 0.020925 -4.843771 -1.216393
v 0.012153 -4.654614 -0.816626
v -1.863353 -1.087857 -1.166324
v -2.129543 0.632011 -1.438027
v -1.793310 -1.100693 -1.443093
v -1.934662 0.530168 -1.694281
v -0.607590 -0.859233 -0.167434
v -0.815767 0.864789 -0.616627
v -0.478142 -0.831652 -0.490342
v -0.691781 0.790654 -0.813216
v -1.959767 2.376256 -2.039190
v -1.840920 2.221339 -2.282374
v -0.765958 2.412869 -1.472793
v -0.750767 2.604647 -1.206319
v -1.019628 3.694691 -2.390223
v -1.492230 -2.618721 -1.401620
v -1.490066 -2.724269 -1.184070
v -0.196608 -2.440173 -0.483278
v -0.319378 -2.484207 -0.283617
v -1.122112 -4.200356 -1.583145
v -1.284100 -4.385069 -1.453258
v 0.251276 -3.839833 -0.595024
v -0.031490 -3.625759 -0.521477
v -1.087392 -0.958582 -0.951994
v -1.225187 0.616609 -1.231955
v -1.261465 -0.970315 -0.691080
v -1.420120 0.757954 -0.983583
v -1.215102 1.929111 -1.664904
v -1.362254 2.260344 -1.489337
v -0.777424 -2.554418 -0.968714
v -0.919264 -2.572437 -0.717999
v -0.305025 -4.251374 -1.115680
v -0.547749 -3.943676 -0.905905
vn -0.9025 0.1654 0.3977
vn -0.1545 0.1581 -0.9753
vn 0.8397 -0.0691 -0.5386
vn 0.1881 -0.2074 0.9600
vn 0.9037 -0.2059 -0.3754
vn 0.3634 0.0089 0.9316
vn 0.6496 0.2293 -0.7249
vn -0.3077 0.0419 -0.9505
vn 0.7263 -0.0937 -0.6810
vn -0.9517 0.3003 -0.0633
vn -0.6104 0.4596 -0.6451
vn 0.4147 0.3154 0.8536
vn -0.2380 0.0135 -0.9712
vn 0.1052 -0.4511 0.8862
vn 0.0778 -0.3765 0.9231
vn -0.0877 0.3501 -0.9326
vn -0.8025 0.0397 0.5953
vn -0.3818 -0.9236 0.0353
vn -0.0679 0.4812 -0.8740
vn 0.9897 -0.0764 -0.1211
vn -0.8993 0.4046 0.1660
vn -0.1510 0.4812 -0.8635
vn -0.2940 -0.7973 -0.5272
vn -0.1736 0.3696 -0.9128
vn 0.0900 -0.3884 0.9171
vn 0.0713 -0.4584 0.8859
vn -0.1646 0.0154 -0.9862
vn 0.2597 0.0287 0.9653
vn 0.2036 -0.1601 0.9659
vn -0.2360 0.1869 -0.9536
vn -0.9813 -0.0316 0.1900
vn 0.0362 -0.0111 -0.9993
vn 0.9820 0.0655 -0.1772
vn 0.0072 -0.0146 0.9999
vn 0.9879 -0.0047 -0.1549
vn 0.0776 0.2082 0.9750
vn 0.7566 -0.0373 -0.6528
vn -0.0242 -0.2081 -0.9778
vn 0.9052 -0.0404 -0.4231
vn -0.9927 0.0466 0.1109
vn -0.9013 0.4322 0.0304
vn 0.0196 0.4606 0.8874
vn 0.0131 -0.3192 -0.9476
vn 0.0027 -0.2794 0.9602
vn -0.0490 -0.2105 0.9764
vn 0.0480 0.1814 -0.9822
vn -0.9036 -0.0961 0.4175
vn -0.1528 -0.9782 0.1405
vn 0.0226 0.3197 -0.9472
vn 0.9808 0.1770 0.0813
vn -0.9825 0.1664 -0.0842
vn -0.0582 0.2989 -0.9525
vn 0.0290 -0.9118 -0.4096
vn -0.0423 0.1796 -0.9828
vn -0.0334 -0.2195 0.9751
vn -0.0275 -0.2955 0.9549
vn 0.0407 -0.1965 -0.9797
vn 0.0157 0.2279 0.9736
vn 0.0095 0.0355 0.9993
vn -0.0325 -0.0080 -0.9994
vn -0.8963 -0.1727 -0.4083
vn 0.6214 -0.0787 -0.7796
vn 0.8864 0.2072 0.4139
vn -0.5847 0.0603 0.8090
vn 0.8839 0.1407 0.4459
vn -0.5325 0.2890 0.7956
vn 0.9862 0.1023 -0.1298
vn 0.5770 -0.2807 -0.7670
vn 0.9794 0.0727 0.1884
vn -0.8653 -0.1034 -0.4904
vn -0.7258 0.3617 -0.5851
vn -0.5454 0.5353 0.6449
vn 0.6014 -0.3597 -0.7134
vn -0.5315 -0.2244 0.8168
vn -0.5993 -0.1433 0.7876
vn 0.6044 0.1139 -0.7885
vn -0.9632 -0.2072 -0.1711
vn -0.2121 -0.6226 0.7532
vn 0.5798 0.2374 -0.7794
vn 0.5733 0.0535 0.8176
vn -0.8745 -0.0891 -0.4767
vn 0.4939 0.2114 -0.8434
vn 0.0078 -0.9372 0.3486
vn 0.5326 0.0978 -0.8407
vn -0.5852 -0.1497 0.7970
vn -0.5033 -0.2711 0.8205
vn 0.6291 -0.2591 -0.7329
vn -0.5830 0.2985 0.7557
vn -0.5869 0.1100 0.8022
vn 0.5662 -0.0865 -0.8197
vt 0.205453 0.713538
vt 0.206526 0.655593
vt 0.259735 0.669848
vt 0.249122 0.721304
vt 0.899659 0.679470
vt 0.912043 0.639537
vt 0.932226 0.638411
vt 0.922252 0.677399
vt 0.507739 0.675454
vt 0.485857 0.624482
vt 0.528151 0.611855
vt 0.562088 0.662289
vt 0.643360 0.600348
vt 0.648416 0.576978
vt 0.676645 0.570371
vt 0.669342 0.605693
vt 0.514389 0.728427
vt 0.477001 0.737382
vt 0.534193 0.601819
vt 0.451934 0.580720
vt 0.468999 0.571542
vt 0.428092 0.589844
vt 0.391610 0.570371
vt 0.896226 0.651419
vt 0.896226 0.580027
vt 0.908909 0.587159
vt 0.292173 0.617450
vt 0.317998 0.635904
vt 0.351173 0.624112
vt 0.922567 0.293960
vt 0.899288 0.306873
vt 0.893125 0.287623
vt 0.922567 0.233458
vt 0.922925 0.573038
vt 0.905446 0.537475
vt 0.640439 0.675083
vt 0.665547 0.683008
vt 0.676645 0.784580
vt 0.638727 0.771389
vt 0.060241 0.664436
vt 0.086327 0.663533
vt 0.081765 0.734164
vt 0.055567 0.739074
vt 0.280904 0.778236
vt 0.252626 0.777628
vt 0.639224 0.825702
vt 0.601218 0.831686
vt 0.601108 0.782150
vt 0.086327 0.854749
vt 0.048887 0.846443
vt 0.445551 0.812615
vt 0.391610 0.827159
vt 0.351173 0.844506
vt 0.322682 0.848673
vt 0.028780 0.727295
vt 0.019510 0.823509
vt 0.670510 0.803295
vt 0.031374 0.661213
vt 0.615023 0.594088
vt 0.615510 0.675167
vt 0.915619 0.389576
vt 0.895224 0.378988
vt 0.896226 0.764605
vt 0.911465 0.718489
vt 0.919448 0.736296
vt 0.919448 0.776362
vt 0.031395 0.623567
vt 0.057465 0.635124
vt 0.615326 0.435226
vt 0.585450 0.360495
vt 0.615324 0.315528
vt 0.639588 0.391979
vt 0.824100 0.935050
vt 0.828310 0.855212
vt 0.857207 0.875808
vt 0.855425 0.958508
vt 0.506554 0.427985
vt 0.510736 0.343129
vt 0.538873 0.371062
vt 0.546430 0.475328
vt 0.823407 0.467079
vt 0.816140 0.383745
vt 0.847843 0.366318
vt 0.854106 0.439628
vt 0.492709 0.502124
vt 0.466244 0.469850
vt 0.789965 0.395684
vt 0.791071 0.254924
vt 0.816926 0.262588
vt 0.502618 0.235493
vt 0.472632 0.209670
vt 0.391610 0.019510
vt 0.796194 0.836441
vt 0.789965 0.696173
vt 0.823815 0.753394
vt 0.598008 0.212431
vt 0.624990 0.175378
vt 0.643240 0.019510
vt 0.847660 0.217177
vt 0.831679 0.019510
vt 0.844598 0.737888
vt 0.809645 0.537475
vt 0.693952 0.906859
vt 0.685694 0.946806
vt 0.632970 0.980490
vt 0.641868 0.926529
vt 0.601091 0.464297
vt 0.669731 0.459842
vt 0.654129 0.488399
vt 0.488625 0.404687
vt 0.444558 0.441781
vt 0.683788 0.425738
vt 0.601108 0.957350
vt 0.601108 0.905316
vt 0.641549 0.872518
vt 0.431937 0.907478
vt 0.467139 0.887937
vt 0.476638 0.962641
vt 0.428634 0.977353
vt 0.429307 0.531352
vt 0.391610 0.487297
vt 0.750945 0.424341
vt 0.745902 0.459793
vt 0.398592 0.912819
vt 0.391610 0.976988
vt 0.893125 0.493112
vt 0.894894 0.456839
vt 0.928128 0.428596
vt 0.928128 0.482480
vt 0.391610 0.879338
vt 0.428347 0.866179
vt 0.585450 0.497428
vt 0.643602 0.512631
vt 0.696763 0.870706
vt 0.789965 0.498455
vt 0.789965 0.913804
vt 0.281856 0.343918
vt 0.271751 0.234160
vt 0.287093 0.208997
vt 0.298137 0.309139
vt 0.112814 0.389189
vt 0.121198 0.287418
vt 0.154422 0.351806
vt 0.148541 0.463249
vt 0.166434 0.371967
vt 0.166434 0.504137
vt 0.245314 0.419931
vt 0.235287 0.310027
vt 0.134609 0.558716
vt 0.124396 0.533583
vt 0.205453 0.371962
vt 0.211047 0.227842
vt 0.239892 0.186089
vt 0.160716 0.227858
vt 0.141199 0.198956
vt 0.104955 0.019510
vt 0.085188 0.208945
vt 0.079011 0.067711
vt 0.117245 0.179229
vt 0.276953 0.091225
vt 0.293137 0.067752
vt 0.266800 0.019510
vt 0.165049 0.693550
vt 0.147334 0.787855
vt 0.125346 0.829610
vt 0.125346 0.623567
vt 0.931707 0.194438
vt 0.912381 0.176026
vt 0.893125 0.067682
vt 0.931707 0.019510
vt 0.270755 0.487136
vt 0.307022 0.414528
vt 0.349423 0.447648
vt 0.301742 0.524666
vt 0.087706 0.456627
vt 0.318415 0.381180
vt 0.715665 0.651701
vt 0.718977 0.570371
vt 0.729188 0.573465
vt 0.729141 0.636859
vt 0.098121 0.584548
vt 0.054502 0.514919
vt 0.103580 0.578416
vt 0.352590 0.427588
vt 0.053802 0.381114
vt 0.019510 0.427515
vt 0.723380 0.741888
vt 0.729188 0.727336
vt 0.074154 0.309078
vt 0.205453 0.504136
vt 0.237200 0.558724
vt 0.268129 0.578430
s 0
f 1/1/1 2/2/1 4/3/1 3/4/1
f 22/5/2 23/6/2 8/7/2 7/8/2
f 7/9/3 8/10/3 6/11/3 5/12/3
f 24/13/4 25/14/4 2/15/4 1/16/4
f 7/9/5 5/12/5 17/17/5 16/18/5
f 25/19/6 6/11/6 12/20/6 27/21/6
f 12/20/7 11/22/7 13/23/7
f 23/6/8 4/24/8 10/25/8 26/26/8
f 6/11/9 8/10/9 11/22/9 12/20/9
f 4/3/10 2/2/10 9/27/10 10/28/10
f 10/28/11 9/27/11 13/29/11
f 9/30/12 27/31/12 12/32/12 13/33/12
f 11/34/13 26/26/13 10/25/13 13/35/13
f 29/36/14 15/37/14 19/38/14 31/39/14
f 24/13/15 1/16/15 15/37/15 29/36/15
f 22/40/16 7/41/16 16/42/16 28/43/16
f 1/1/17 3/4/17 14/44/17 15/45/17
f 30/46/18 20/47/18 21/48/18 31/39/18
f 28/43/19 16/42/19 20/49/19 30/50/19
f 16/18/20 17/17/20 21/51/20 20/52/20
f 15/45/21 14/44/21 18/53/21 19/54/21
f 14/55/22 28/43/22 30/50/22 18/56/22
f 18/57/23 30/46/23 31/39/23 19/38/23
f 3/58/24 22/40/24 28/43/24 14/55/24
f 5/59/25 24/13/25 29/36/25 17/60/25
f 17/60/26 29/36/26 31/39/26 21/48/26
f 8/7/27 23/6/27 26/26/27 11/34/27
f 2/61/28 25/62/28 27/31/28 9/30/28
f 5/63/29 6/64/29 25/65/29 24/66/29
f 3/58/30 4/67/30 23/68/30 22/40/30
f 32/69/31 33/70/31 35/71/31 34/72/31
f 53/73/32 54/74/32 39/75/32 38/76/32
f 38/77/33 39/78/33 37/79/33 36/80/33
f 55/81/34 56/82/34 33/83/34 32/84/34
f 38/77/35 36/80/35 48/85/35 47/86/35
f 56/82/36 37/87/36 43/88/36 58/89/36
f 43/90/37 42/91/37 44/92/37
f 54/74/38 35/93/38 41/94/38 57/95/38
f 37/79/39 39/78/39 42/91/39 43/90/39
f 35/71/40 33/70/40 40/96/40 41/97/40
f 41/97/41 40/96/41 44/98/41
f 40/99/42 58/89/42 43/88/42 44/100/42
f 42/101/43 57/95/43 41/94/43 44/102/43
f 60/103/44 46/104/44 50/105/44 62/106/44
f 55/107/45 32/69/45 46/108/45 60/109/45
f 53/110/46 38/77/46 47/86/46 59/111/46
f 32/69/47 34/72/47 45/112/47 46/108/47
f 61/113/48 51/114/48 52/115/48 62/106/48
f 59/116/49 47/117/49 51/118/49 61/119/49
f 47/86/50 48/85/50 52/120/50 51/121/50
f 46/108/51 45/112/51 49/122/51 50/123/51
f 45/124/52 59/116/52 61/119/52 49/125/52
f 49/126/53 61/127/53 62/128/53 50/129/53
f 34/130/54 53/131/54 59/116/54 45/124/54
f 36/132/55 55/107/55 60/109/55 48/133/55
f 48/134/56 60/103/56 62/106/56 52/115/56
f 39/75/57 54/74/57 57/95/57 42/101/57
f 33/83/58 56/82/58 58/89/58 40/99/58
f 36/135/59 37/87/59 56/82/59 55/81/59
f 34/136/60 35/93/60 54/74/60 53/73/60
f 63/137/61 64/138/61 66/139/61 65/140/61
f 84/141/62 85/142/62 70/143/62 69/144/62
f 69/144/63 70/143/63 68/145/63 67/146/63
f 86/147/64 87/148/64 64/138/64 63/137/64
f 69/144/65 67/146/65 79/149/65 78/150/65
f 87/148/66 68/151/66 74/152/66 89/153/66
f 74/154/67 73/155/67 75/156/67
f 85/142/68 66/157/68 72/158/68 88/159/68
f 68/145/69 70/143/69 73/155/69 74/154/69
f 66/139/70 64/138/70 71/160/70 72/161/70
f 72/161/71 71/160/71 75/162/71
f 71/163/72 89/164/72 74/165/72 75/166/72
f 73/167/73 88/168/73 72/169/73 75/170/73
f 91/171/74 77/172/74 81/173/74 93/174/74
f 86/147/75 63/137/75 77/172/75 91/171/75
f 84/141/76 69/144/76 78/150/76 90/175/76
f 63/137/77 65/140/77 76/176/77 77/172/77
f 92/177/78 82/178/78 83/179/78 93/180/78
f 90/175/79 78/150/79 82/181/79 92/182/79
f 78/150/80 79/149/80 83/183/80 82/181/80
f 77/172/81 76/176/81 80/184/81 81/173/81
f 76/185/82 90/175/82 92/182/82 80/186/82
f 80/187/83 92/177/83 93/180/83 81/188/83
f 65/189/84 84/141/84 90/175/84 76/185/84
f 67/190/85 86/147/85 91/171/85 79/191/85
f 79/191/86 91/171/86 93/174/86 83/192/86
f 70/143/87 85/142/87 88/159/87 73/155/87
f 64/138/88 87/148/88 89/153/88 71/160/88
f 67/190/89 68/151/89 87/148/89 86/147/89
f 65/189/90 66/157/90 85/142/90 84/141/90
