# Blender 3.6.1
# www.blender.org
o Cylinder
v 0.000000 0.000000 -1.000000
v -0.000000 2.000000 -1.326034
v 0.707107 0.000000 -0.707107
v 0.937648 2.000000 -0.937648
v 1.000000 0.000000 0.000000
v 1.326034 2.000000 0.000000
v 0.707107 0.000000 0.707107
v 0.937648 2.000000 0.937648
v 0.000000 0.000000 1.000000
v -0.000000 2.000000 1.326034
v -0.707107 0.000000 0.707107
v -0.937648 2.000000 0.937648
v -1.000000 0.000000 0.000000
v -1.326034 2.000000 0.000000
v -0.707107 0.000000 -0.707107
v -0.937648 2.000000 -0.937648
v 0.184924 3.045171 -0.184924
v -0.000000 3.045171 -0.261521
v 0.261521 3.045171 0.000000
v 0.184924 3.045171 0.184924
v -0.000000 3.045171 0.261521
v -0.184924 3.045171 0.184924
v -0.261521 3.045171 0.000000
v -0.184924 3.045171 -0.184924
v 0.126864 3.437111 -0.126864
v -0.000000 3.437111 -0.179413
v 0.179413 3.437111 0.000000
v 0.126864 3.437111 0.126864
v -0.000000 3.437111 0.179413
v -0.126864 3.437111 0.126864
v -0.179413 3.437111 0.000000
v -0.126864 3.437111 -0.126864
v 0.184924 3.437111 -0.184924
v -0.000000 3.437111 -0.261521
v 0.261521 3.437111 0.000000
v 0.184924 3.437111 0.184924
v -0.000000 3.437111 0.261521
v -0.184924 3.437111 0.184924
v -0.261521 3.437111 0.000000
v -0.184924 3.437111 -0.184924
v 0.126864 3.578141 -0.126864
v 0.000000 3.578141 -0.179413
v 0.179413 3.578141 0.000000
v 0.126864 3.578141 0.126864
v 0.000000 3.578141 0.179413
v -0.126864 3.578141 0.126864
v -0.179413 3.578141 0.000000
v -0.126864 3.578141 -0.126864
vn 0.3784 -0.1489 -0.9136
vn 0.9136 -0.1489 -0.3784
vn 0.9136 -0.1489 0.3784
vn 0.3784 -0.1489 0.9136
vn -0.3784 -0.1489 0.9136
vn -0.9136 -0.1489 0.3784
vn -0.6728 0.6853 -0.2787
vn -0.9136 -0.1489 -0.3784
vn -0.3784 -0.1489 -0.9136
vn -0.0000 -1.0000 -0.0000
vn -0.3827 -0.0000 0.9239
vn 0.6728 0.6853 -0.2787
vn -0.2787 0.6853 0.6728
vn -0.2787 0.6853 -0.6728
vn 0.2787 0.6853 -0.6728
vn 0.6728 0.6853 0.2787
vn -0.6728 0.6853 0.2787
vn 0.2787 0.6853 0.6728
vn -0.3827 -0.0000 -0.9239
vn 0.9239 -0.0000 0.3827
vn 0.3827 -0.0000 -0.9239
vn -0.9239 -0.0000 0.3827
vn 0.3827 -0.0000 0.9239
vn 0.9239 -0.0000 -0.3827
vn -0.9239 -0.0000 -0.3827
vn -0.0000 1.0000 -0.0000
vt 0.783954 0.482127
vt 0.795386 0.205505
vt 0.894002 0.208377
vt 0.858323 0.484292
vt 0.402577 0.983659
vt 0.385446 0.707332
vt 0.524797 0.707332
vt 0.507665 0.983659
vt 0.421125 0.484292
vt 0.385446 0.208377
vt 0.484062 0.205505
vt 0.495495 0.482127
vt 0.623383 0.208377
vt 0.600561 0.484292
vt 0.057699 0.486723
vt 0.016341 0.211602
vt 0.114877 0.206698
vt 0.132008 0.483025
vt 0.254228 0.206698
vt 0.237097 0.483025
vt 0.557479 0.656325
vt 0.557479 0.516975
vt 0.692515 0.572908
vt 0.692515 0.600391
vt 0.352764 0.211602
vt 0.311405 0.486723
vt 0.678888 0.484292
vt 0.656065 0.208377
vt 0.270047 0.698803
vt 0.195738 0.773111
vt 0.090650 0.773111
vt 0.016341 0.698803
vt 0.016341 0.593714
vt 0.090650 0.519406
vt 0.195738 0.519406
vt 0.270047 0.593714
vt 0.170811 0.070089
vt 0.151378 0.071057
vt 0.151378 0.017308
vt 0.170811 0.016341
vt 0.441380 0.570723
vt 0.468863 0.570723
vt 0.557479 0.828358
vt 0.557479 0.689008
vt 0.692515 0.744941
vt 0.692515 0.772424
vt 0.709172 0.070644
vt 0.736649 0.070078
vt 0.860234 0.516975
vt 0.860234 0.656325
vt 0.725197 0.600391
vt 0.725197 0.572909
vt 0.860234 0.689008
vt 0.860234 0.828358
vt 0.725198 0.772424
vt 0.725198 0.744941
vt 0.198294 0.070089
vt 0.542799 0.070078
vt 0.570276 0.070644
vt 0.303118 0.760329
vt 0.302729 0.741479
vt 0.322065 0.741080
vt 0.322454 0.759930
vt 0.523350 0.070644
vt 0.524458 0.016908
vt 0.543907 0.016341
vt 0.756098 0.070644
vt 0.735541 0.016341
vt 0.754990 0.016907
vt 0.708064 0.016907
vt 0.198294 0.016341
vt 0.571384 0.016908
vt 0.441380 0.516975
vt 0.468863 0.516975
vt 0.217727 0.071057
vt 0.217727 0.017308
vt 0.058943 0.861727
vt 0.072275 0.848396
vt 0.082691 0.852710
vt 0.063257 0.872143
vt 0.072275 0.829541
vt 0.082691 0.825227
vt 0.058943 0.816209
vt 0.063257 0.805794
vt 0.040089 0.816209
vt 0.035774 0.805794
vt 0.026757 0.829541
vt 0.016341 0.825227
vt 0.026757 0.848395
vt 0.016341 0.852710
vt 0.040089 0.861727
vt 0.035774 0.872143
vt 0.334915 0.564924
vt 0.316061 0.564924
vt 0.302729 0.551592
vt 0.302729 0.532738
vt 0.316061 0.519406
vt 0.334915 0.519406
vt 0.348247 0.532738
vt 0.348247 0.551592
vt 0.322069 0.610938
vt 0.322069 0.629792
vt 0.302729 0.629792
vt 0.302729 0.610938
vt 0.134227 0.825134
vt 0.115373 0.825134
vt 0.115373 0.805794
vt 0.134227 0.805794
vt 0.303118 0.695055
vt 0.302729 0.676205
vt 0.322065 0.675806
vt 0.322454 0.694657
vt 0.322733 0.597606
vt 0.303393 0.597606
vt 0.322733 0.643124
vt 0.303393 0.643124
vt 0.302729 0.708398
vt 0.322065 0.708000
vt 0.302729 0.773672
vt 0.322065 0.773273
s 0
f 1/1/1 2/2/1 4/3/1 3/4/1
f 3/5/2 4/6/2 6/7/2 5/8/2
f 5/9/3 6/10/3 8/11/3 7/12/3
f 7/12/4 8/11/4 10/13/4 9/14/4
f 9/15/5 10/16/5 12/17/5 11/18/5
f 11/18/6 12/17/6 14/19/6 13/20/6
f 16/21/7 14/22/7 23/23/7 24/24/7
f 13/20/8 14/19/8 16/25/8 15/26/8
f 15/27/9 16/28/9 2/2/9 1/1/9
f 1/29/10 3/30/10 5/31/10 7/32/10 9/33/10 11/34/10 13/35/10 15/36/10
f 22/37/11 21/38/11 37/39/11 38/40/11
f 6/7/12 4/6/12 17/41/12 19/42/12
f 12/43/13 10/44/13 21/45/13 22/46/13
f 2/2/14 16/28/14 24/47/14 18/48/14
f 4/49/15 2/50/15 18/51/15 17/52/15
f 8/53/16 6/54/16 19/55/16 20/56/16
f 14/19/17 12/17/17 22/37/17 23/57/17
f 10/13/18 8/11/18 20/58/18 21/59/18
f 26/60/19 32/61/19 48/62/19 42/63/19
f 20/58/20 19/64/20 35/65/20 36/66/20
f 17/67/21 18/48/21 34/68/21 33/69/21
f 18/48/19 24/47/19 40/70/19 34/68/19
f 23/57/22 22/37/22 38/40/22 39/71/22
f 21/59/23 20/58/23 36/66/23 37/72/23
f 19/42/24 17/41/24 33/73/24 35/74/24
f 24/75/25 23/57/25 39/71/25 40/76/25
f 26/77/26 25/78/26 33/79/26 34/80/26
f 25/78/26 27/81/26 35/82/26 33/79/26
f 27/81/26 28/83/26 36/84/26 35/82/26
f 28/83/26 29/85/26 37/86/26 36/84/26
f 29/85/26 30/87/26 38/88/26 37/86/26
f 30/87/26 31/89/26 39/90/26 38/88/26
f 31/89/26 32/91/26 40/92/26 39/90/26
f 32/91/26 26/77/26 34/80/26 40/92/26
f 41/93/26 42/94/26 48/95/26 47/96/26 46/97/26 45/98/26 44/99/26 43/100/26
f 31/101/22 30/102/22 46/103/22 47/104/22
f 29/105/23 28/106/23 44/107/23 45/108/23
f 27/109/24 25/110/24 41/111/24 43/112/24
f 32/113/25 31/101/25 47/104/25 48/114/25
f 30/102/11 29/115/11 45/116/11 46/103/11
f 28/117/20 27/109/20 43/112/20 44/118/20
f 25/119/21 26/60/21 42/63/21 41/120/21
