{
	"asset":{
		"generator":"Khronos glTF Blender I/O v4.1.62",
		"version":"2.0"
	},
	"extensionsUsed":[
		"KHR_materials_specular"
	],
	"scene":0,
	"scenes":[
		{
			"name":"Scene",
			"nodes":[
				45
			]
		}
	],
	"nodes":[
		{
			"name":"index_right3_end",
			"rotation":[
				-3.6135315895080566e-07,
				1.6847625374794006e-06,
				5.103647708892822e-07,
				1
			],
			"translation":[
				-1.1920928955078125e-07,
				0.7537345886230469,
				1.1920928955078125e-06
			]
		},
		{
			"children":[
				0
			],
			"name":"index_right3",
			"rotation":[
				7.990747690200806e-07,
				3.4384429454803467e-06,
				2.2351741790771484e-08,
				1
			],
			"translation":[
				-1.1324882507324219e-06,
				1.5074684619903564,
				-4.172325134277344e-07
			]
		},
		{
			"children":[
				1
			],
			"name":"index_right2",
			"rotation":[
				-0.06278380751609802,
				-0.43571922183036804,
				-0.05475558340549469,
				0.8962191939353943
			],
			"scale":[
				1.0000001192092896,
				1,
				1.0000001192092896
			],
			"translation":[
				9.87667590379715e-07,
				1.5022516250610352,
				7.450580596923828e-09
			]
		},
		{
			"children":[
				2
			],
			"name":"index_right1",
			"rotation":[
				0.18204908072948456,
				-0.09932180494070053,
				-0.012288778088986874,
				0.9781831502914429
			],
			"scale":[
				0.9999998807907104,
				0.9999999403953552,
				0.9999999403953552
			],
			"translation":[
				-1.9669532775878906e-06,
				3.373624563217163,
				-1.430511474609375e-06
			]
		},
		{
			"children":[
				3
			],
			"name":"index_right0",
			"rotation":[
				0.05169053003191948,
				-0.9176994562149048,
				-0.2873367667198181,
				0.26943162083625793
			],
			"scale":[
				0.9999998807907104,
				1,
				1
			],
			"translation":[
				-0.10374869406223297,
				1.7732967138290405,
				-0.8406487107276917
			]
		},
		{
			"name":"thumb_right3_end",
			"rotation":[
				-8.881784197001252e-16,
				-7.450581485102248e-09,
				-5.587936513506975e-08,
				1
			],
			"scale":[
				0.9999999403953552,
				0.9999998211860657,
				0.9999998807907104
			],
			"translation":[
				-1.1920928955078125e-07,
				0.40410733222961426,
				4.76837158203125e-07
			]
		},
		{
			"children":[
				5
			],
			"name":"thumb_right3",
			"rotation":[
				1.7136332530753862e-07,
				1.005828266897879e-06,
				2.942979051567818e-07,
				1
			],
			"scale":[
				1.0000001192092896,
				1.0000001192092896,
				1.0000001192092896
			],
			"translation":[
				-4.3213367462158203e-07,
				0.8082164525985718,
				3.129243850708008e-06
			]
		},
		{
			"children":[
				6
			],
			"name":"thumb_right2",
			"rotation":[
				-3.0174851417541504e-07,
				-7.897614864305069e-07,
				-1.825392246246338e-07,
				1
			],
			"scale":[
				1,
				1,
				1.0000001192092896
			],
			"translation":[
				-2.518296241760254e-06,
				0.9698572158813477,
				7.078051567077637e-07
			]
		},
		{
			"children":[
				7
			],
			"name":"thumb_right1",
			"rotation":[
				4.842877956434677e-07,
				1.3001264278500457e-06,
				4.097819896742294e-07,
				1
			],
			"scale":[
				0.9999998807907104,
				0.9999999403953552,
				0.9999998807907104
			],
			"translation":[
				1.1324882507324219e-06,
				0.8082156181335449,
				1.4901161193847656e-08
			]
		},
		{
			"children":[
				8
			],
			"name":"thumb_right0",
			"rotation":[
				-0.019469747319817543,
				0.8342137336730957,
				0.445365846157074,
				0.32458847761154175
			],
			"scale":[
				0.9999999403953552,
				0.9999998211860657,
				0.9999999403953552
			],
			"translation":[
				0.19327233731746674,
				1.1503626108169556,
				1.0421876907348633
			]
		},
		{
			"children":[
				4,
				9
			],
			"name":"arm_right_hand",
			"rotation":[
				-0.04065500199794769,
				0.5598950386047363,
				0.11428157985210419,
				0.8196368217468262
			],
			"scale":[
				1.0000001192092896,
				0.9999999403953552,
				1
			],
			"translation":[
				7.450580596923828e-08,
				12.081494331359863,
				7.227063179016113e-07
			]
		},
		{
			"children":[
				10
			],
			"name":"arm_right_bot",
			"rotation":[
				0.16428683698177338,
				-0.7669914960861206,
				-0.04200517013669014,
				0.6188452839851379
			],
			"scale":[
				1.0000001192092896,
				1.000000238418579,
				1.0000001192092896
			],
			"translation":[
				1.3113021850585938e-06,
				14.87718391418457,
				4.172325134277344e-07
			]
		},
		{
			"children":[
				11
			],
			"name":"arm_right_top",
			"rotation":[
				-0.041961703449487686,
				0.058507971465587616,
				0.18148711323738098,
				0.980754017829895
			],
			"scale":[
				0.9999999403953552,
				1,
				0.9999998807907104
			],
			"translation":[
				3.069639205932617e-06,
				3.03115177154541,
				1.1920928955078125e-07
			]
		},
		{
			"children":[
				12
			],
			"name":"shoulder_right",
			"rotation":[
				-0.0916542187333107,
				-2.222827966136265e-08,
				0.9217581152915955,
				0.3767778277397156
			],
			"scale":[
				1.000000238418579,
				1,
				1
			],
			"translation":[
				-4.852906703948975,
				2.7967302799224854,
				-1.0077996253967285
			]
		},
		{
			"name":"index_left3_end",
			"rotation":[
				-3.6135315895080566e-07,
				-1.6847625374794006e-06,
				-5.103647708892822e-07,
				1
			],
			"translation":[
				1.1920928955078125e-07,
				0.7537345886230469,
				1.1920928955078125e-06
			]
		},
		{
			"children":[
				14
			],
			"name":"index_left3",
			"rotation":[
				7.990747690200806e-07,
				-3.4384429454803467e-06,
				-2.2351741790771484e-08,
				1
			],
			"translation":[
				1.1324882507324219e-06,
				1.5074684619903564,
				-4.172325134277344e-07
			]
		},
		{
			"children":[
				15
			],
			"name":"index_left2",
			"rotation":[
				-0.06278380751609802,
				0.43571922183036804,
				0.05475558340549469,
				0.8962191939353943
			],
			"scale":[
				1.0000001192092896,
				1,
				1.0000001192092896
			],
			"translation":[
				-9.87667590379715e-07,
				1.5022516250610352,
				7.450580596923828e-09
			]
		},
		{
			"children":[
				16
			],
			"name":"index_left1",
			"rotation":[
				0.18204908072948456,
				0.09932180494070053,
				0.012288778088986874,
				0.9781831502914429
			],
			"scale":[
				0.9999998807907104,
				0.9999999403953552,
				0.9999999403953552
			],
			"translation":[
				1.9669532775878906e-06,
				3.373624563217163,
				-1.430511474609375e-06
			]
		},
		{
			"children":[
				17
			],
			"name":"index_left0",
			"rotation":[
				0.05169053003191948,
				0.9176994562149048,
				0.2873367667198181,
				0.26943162083625793
			],
			"scale":[
				0.9999998807907104,
				1,
				1
			],
			"translation":[
				0.10374869406223297,
				1.7732967138290405,
				-0.8406487107276917
			]
		},
		{
			"name":"thumb_left3_end",
			"rotation":[
				-8.881784197001252e-16,
				7.450581485102248e-09,
				5.587936513506975e-08,
				1
			],
			"scale":[
				0.9999999403953552,
				0.9999998211860657,
				0.9999998807907104
			],
			"translation":[
				1.1920928955078125e-07,
				0.40410733222961426,
				4.76837158203125e-07
			]
		},
		{
			"children":[
				19
			],
			"name":"thumb_left3",
			"rotation":[
				1.7136332530753862e-07,
				-1.005828266897879e-06,
				-2.942979051567818e-07,
				1
			],
			"scale":[
				1.0000001192092896,
				1.0000001192092896,
				1.0000001192092896
			],
			"translation":[
				4.3213367462158203e-07,
				0.8082164525985718,
				3.129243850708008e-06
			]
		},
		{
			"children":[
				20
			],
			"name":"thumb_left2",
			"rotation":[
				-3.0174851417541504e-07,
				7.897614864305069e-07,
				1.825392246246338e-07,
				1
			],
			"scale":[
				1,
				1,
				1.0000001192092896
			],
			"translation":[
				2.518296241760254e-06,
				0.9698572158813477,
				7.078051567077637e-07
			]
		},
		{
			"children":[
				21
			],
			"name":"thumb_left1",
			"rotation":[
				4.842877956434677e-07,
				-1.3001264278500457e-06,
				-4.097819896742294e-07,
				1
			],
			"scale":[
				0.9999998807907104,
				0.9999999403953552,
				0.9999998807907104
			],
			"translation":[
				-1.1324882507324219e-06,
				0.8082156181335449,
				1.4901161193847656e-08
			]
		},
		{
			"children":[
				22
			],
			"name":"thumb_left0",
			"rotation":[
				-0.019469747319817543,
				-0.8342137336730957,
				-0.445365846157074,
				0.32458847761154175
			],
			"scale":[
				0.9999999403953552,
				0.9999998211860657,
				0.9999999403953552
			],
			"translation":[
				-0.19327233731746674,
				1.1503626108169556,
				1.0421876907348633
			]
		},
		{
			"children":[
				18,
				23
			],
			"name":"arm_left_hand",
			"rotation":[
				-0.04065500199794769,
				-0.5598950386047363,
				-0.11428157985210419,
				0.8196368217468262
			],
			"scale":[
				1.0000001192092896,
				0.9999999403953552,
				1
			],
			"translation":[
				-7.450580596923828e-08,
				12.081494331359863,
				7.227063179016113e-07
			]
		},
		{
			"children":[
				24
			],
			"name":"arm_left_bot",
			"rotation":[
				0.16428683698177338,
				0.7669914960861206,
				0.04200517013669014,
				0.6188452839851379
			],
			"scale":[
				1.0000001192092896,
				1.000000238418579,
				1.0000001192092896
			],
			"translation":[
				-1.3113021850585938e-06,
				14.87718391418457,
				4.172325134277344e-07
			]
		},
		{
			"children":[
				25
			],
			"name":"arm_left_top",
			"rotation":[
				-0.041961703449487686,
				-0.058507971465587616,
				-0.18148711323738098,
				0.980754017829895
			],
			"scale":[
				0.9999999403953552,
				1,
				0.9999998807907104
			],
			"translation":[
				-3.069639205932617e-06,
				3.03115177154541,
				1.1920928955078125e-07
			]
		},
		{
			"children":[
				26
			],
			"name":"shoulder_left",
			"rotation":[
				-0.0916542187333107,
				2.222827966136265e-08,
				-0.9217581152915955,
				0.3767778277397156
			],
			"scale":[
				1.000000238418579,
				1,
				1
			],
			"translation":[
				4.852906703948975,
				2.7967302799224854,
				-1.0077996253967285
			]
		},
		{
			"name":"head_end",
			"rotation":[
				-3.725289943190546e-08,
				0,
				0,
				1
			],
			"scale":[
				1,
				1.0000001192092896,
				1.0000001192092896
			],
			"translation":[
				0,
				4.093732833862305,
				1.9073486328125e-06
			]
		},
		{
			"children":[
				28
			],
			"name":"head",
			"rotation":[
				-1.6763806343078613e-07,
				0,
				0,
				1
			],
			"translation":[
				0,
				8.187460899353027,
				2.7418136596679688e-06
			]
		},
		{
			"children":[
				29
			],
			"name":"neck",
			"rotation":[
				0.6102854609489441,
				0,
				0,
				0.7921816110610962
			],
			"translation":[
				0,
				7.008760452270508,
				3.7983181755407713e-07
			]
		},
		{
			"children":[
				13,
				27,
				30
			],
			"name":"body_top2",
			"rotation":[
				-4.0815464785737277e-08,
				0,
				0,
				1
			],
			"translation":[
				0,
				5.578474044799805,
				-8.446437504971982e-08
			]
		},
		{
			"children":[
				31
			],
			"name":"body_top1",
			"rotation":[
				2.1369515934566152e-08,
				0,
				0,
				1
			],
			"translation":[
				0,
				11.097244262695312,
				3.234538326069014e-08
			]
		},
		{
			"children":[
				32
			],
			"name":"body_top0",
			"rotation":[
				-1.3642420526593924e-12,
				0,
				0,
				1
			],
			"translation":[
				0,
				6.566249847412109,
				-9.024444125316222e-08
			]
		},
		{
			"name":"leg_right_foot_end",
			"rotation":[
				-3.806131587680284e-08,
				0,
				0,
				1
			],
			"translation":[
				0,
				6.264064311981201,
				-6.72753230901435e-09
			]
		},
		{
			"children":[
				34
			],
			"name":"leg_right_foot",
			"rotation":[
				3.572062468037984e-08,
				0,
				0,
				1
			],
			"scale":[
				1,
				0.9999999403953552,
				1
			],
			"translation":[
				0,
				25.464509963989258,
				-2.001797838602215e-09
			]
		},
		{
			"children":[
				35
			],
			"name":"leg_right_bot",
			"rotation":[
				2.342058991189333e-09,
				0,
				0,
				1
			],
			"translation":[
				0,
				18.295427322387695,
				-3.716922947205603e-08
			]
		},
		{
			"children":[
				36
			],
			"name":"leg_right_top",
			"rotation":[
				0,
				0,
				-1,
				0
			],
			"translation":[
				-4.048759460449219,
				0.3001932203769684,
				-0.4356817901134491
			]
		},
		{
			"name":"leg_left_foot_end",
			"rotation":[
				-3.806131587680284e-08,
				0,
				0,
				1
			],
			"translation":[
				0,
				6.264064311981201,
				-6.72753230901435e-09
			]
		},
		{
			"children":[
				38
			],
			"name":"leg_left_foot",
			"rotation":[
				3.572062468037984e-08,
				0,
				0,
				1
			],
			"scale":[
				1,
				0.9999999403953552,
				1
			],
			"translation":[
				0,
				25.464509963989258,
				-2.001797838602215e-09
			]
		},
		{
			"children":[
				39
			],
			"name":"leg_left_bot",
			"rotation":[
				2.342058991189333e-09,
				0,
				0,
				1
			],
			"translation":[
				0,
				18.295427322387695,
				-3.716922947205603e-08
			]
		},
		{
			"children":[
				40
			],
			"name":"leg_left_top",
			"rotation":[
				0,
				0,
				-1,
				0
			],
			"translation":[
				4.048759460449219,
				0.3001932203769684,
				-0.4356817901134491
			]
		},
		{
			"children":[
				33,
				37,
				41
			],
			"name":"body",
			"rotation":[
				-4.947093202645192e-06,
				0,
				0,
				1
			],
			"translation":[
				0,
				49.72380447387695,
				-0.0004918710910715163
			]
		},
		{
			"children":[
				42
			],
			"name":"root",
			"rotation":[
				-0.7071033120155334,
				0,
				0,
				0.7071102261543274
			],
			"translation":[
				0,
				-1.3633517026901245,
				46.43219757080078
			]
		},
		{
			"mesh":0,
			"name":"PS1_Skeleton",
			"skin":0
		},
		{
			"children":[
				44,
				43
			],
			"name":"rig",
			"rotation":[
				0.7071068286895752,
				0,
				0,
				0.7071068286895752
			]
		}
	],
	"materials":[
		{
			"doubleSided":true,
			"extensions":{
				"KHR_materials_specular":{
					"specularFactor":0.6595739722251892
				}
			},
			"name":"Skeleton256",
			"pbrMetallicRoughness":{
				"baseColorFactor":[
					0.800000011920929,
					0.800000011920929,
					0.800000011920929,
					1
				],
				"metallicFactor":0
			}
		}
	],
	"meshes":[
		{
			"name":"PS1_Skeleton",
			"primitives":[
				{
					"attributes":{
						"POSITION":0,
						"NORMAL":1,
						"TEXCOORD_0":2,
						"JOINTS_0":3,
						"WEIGHTS_0":4
					},
					"indices":5,
					"material":0
				}
			]
		}
	],
	"skins":[
		{
			"inverseBindMatrices":6,
			"joints":[
				43,
				42,
				33,
				32,
				31,
				13,
				12,
				11,
				10,
				4,
				3,
				2,
				1,
				0,
				9,
				8,
				7,
				6,
				5,
				27,
				26,
				25,
				24,
				18,
				17,
				16,
				15,
				14,
				23,
				22,
				21,
				20,
				19,
				30,
				29,
				28,
				37,
				36,
				35,
				34,
				41,
				40,
				39,
				38
			],
			"name":"rig"
		}
	],
	"accessors":[
		{
			"bufferView":0,
			"componentType":5126,
			"count":2421,
			"max":[
				17.286130905151367,
				46.43219757080078,
				6.7261247634887695
			],
			"min":[
				-17.286130905151367,
				-46.43219757080078,
				-6.7261223793029785
			],
			"type":"VEC3"
		},
		{
			"bufferView":1,
			"componentType":5126,
			"count":2421,
			"type":"VEC3"
		},
		{
			"bufferView":2,
			"componentType":5126,
			"count":2421,
			"type":"VEC2"
		},
		{
			"bufferView":3,
			"componentType":5121,
			"count":2421,
			"type":"VEC4"
		},
		{
			"bufferView":4,
			"componentType":5126,
			"count":2421,
			"type":"VEC4"
		},
		{
			"bufferView":5,
			"componentType":5123,
			"count":8970,
			"type":"SCALAR"
		},
		{
			"bufferView":6,
			"componentType":5126,
			"count":44,
			"type":"MAT4"
		}
	],
	"bufferViews":[
		{
			"buffer":0,
			"byteLength":29052,
			"byteOffset":0,
			"target":34962
		},
		{
			"buffer":0,
			"byteLength":29052,
			"byteOffset":29052,
			"target":34962
		},
		{
			"buffer":0,
			"byteLength":19368,
			"byteOffset":58104,
			"target":34962
		},
		{
			"buffer":0,
			"byteLength":9684,
			"byteOffset":77472,
			"target":34962
		},
		{
			"buffer":0,
			"byteLength":38736,
			"byteOffset":87156,
			"target":34962
		},
		{
			"buffer":0,
			"byteLength":17940,
			"byteOffset":125892,
			"target":34963
		},
		{
			"buffer":0,
			"byteLength":2816,
			"byteOffset":143832
		}
	],
	"buffers":[
		{
			"byteLength":146648,
			"uri":"data:application/octet-stream;base64,"
		}
	]
}
